<svg xmlns="http://www.w3.org/2000/svg" viewBox="0 0 1051.46 330.54"><defs><style>.cls-1{fill:#cf151b;}.cls-2{fill:#fff;}.cls-3{fill:#040000;}</style></defs><title>資產 1</title><g id="圖層_2" data-name="圖層 2"><g id="圖層_1-2" data-name="圖層 1"><path class="cls-1" d="M1025.17,213.22h-368a26.28,26.28,0,0,0-26.28,26.29v43.3h-92L489,233a9.28,9.28,0,0,0-6.56-2.72h-368a9.28,9.28,0,0,0,0,18.55H478.59l34,34H9.27a9.27,9.27,0,0,0,0,18.54H630.88v2.9a26.28,26.28,0,0,0,26.28,26.29h368a26.29,26.29,0,0,0,26.29-26.29V239.51A26.29,26.29,0,0,0,1025.17,213.22Z"/><path class="cls-2" d="M692.37,236.41q10.62,0,18.25,4.33a28,28,0,0,1,11.54,12.31,42.07,42.07,0,0,1,3.91,18.74,45.92,45.92,0,0,1-2.14,14.45,31.28,31.28,0,0,1-6.44,11.28,28.21,28.21,0,0,1-10.53,7.3,38.05,38.05,0,0,1-14.31,2.53,37.62,37.62,0,0,1-14.36-2.6,28.45,28.45,0,0,1-10.58-7.32,31.28,31.28,0,0,1-6.41-11.37,45.94,45.94,0,0,1-2.17-14.37,44.41,44.41,0,0,1,2.26-14.5A31.17,31.17,0,0,1,667.94,246a28.35,28.35,0,0,1,10.44-7.09A37.48,37.48,0,0,1,692.37,236.41ZM712,271.69a32.37,32.37,0,0,0-2.42-13.05,18.14,18.14,0,0,0-6.93-8.35,19,19,0,0,0-10.32-2.83A18.72,18.72,0,0,0,684.7,249a16.83,16.83,0,0,0-6.06,4.57,21.63,21.63,0,0,0-4,7.65,34.58,34.58,0,0,0-1.47,10.45,35.55,35.55,0,0,0,1.47,10.58,21.61,21.61,0,0,0,4.15,7.83,17.45,17.45,0,0,0,6.15,4.66,18.34,18.34,0,0,0,24.48-9.36A32,32,0,0,0,712,271.69Z"/><path class="cls-2" d="M756,244.74l26.62,40.43v-40.8q0-4,1.7-6a5.77,5.77,0,0,1,4.59-2,5.93,5.93,0,0,1,4.71,2q1.73,2,1.73,6v53.94q0,9-7.46,9a9.87,9.87,0,0,1-3.36-.54,8.45,8.45,0,0,1-2.79-1.71,16.66,16.66,0,0,1-2.43-2.74c-.74-1-1.49-2.11-2.24-3.2l-26-40v40.19q0,3.93-1.82,5.94a6,6,0,0,1-4.66,2,5.93,5.93,0,0,1-4.71-2,8.78,8.78,0,0,1-1.77-5.92V246.47a15.2,15.2,0,0,1,.74-5.28,7.51,7.51,0,0,1,2.94-3.44,8,8,0,0,1,4.43-1.34,7.69,7.69,0,0,1,3.19.61,7.56,7.56,0,0,1,2.33,1.64,17.13,17.13,0,0,1,2.06,2.67C754.48,242.42,755.21,243.56,756,244.74Z"/><path class="cls-2" d="M824,244.84v49.92h28.07a7.41,7.41,0,0,1,5.15,1.64,5.34,5.34,0,0,1,1.79,4.11,5.22,5.22,0,0,1-1.77,4.1,7.59,7.59,0,0,1-5.17,1.56H818.65q-4.51,0-6.5-2t-2-6.5V244.84q0-4.22,1.89-6.32a6.36,6.36,0,0,1,5-2.11,6.59,6.59,0,0,1,5.06,2.09Q824,240.58,824,244.84Z"/><path class="cls-2" d="M868.67,298.88v-54q0-4.22,1.91-6.32a6.39,6.39,0,0,1,4.94-2.11,6.58,6.58,0,0,1,5.06,2.09q1.93,2.08,1.94,6.34v54c0,2.83-.65,5-1.94,6.36a6.56,6.56,0,0,1-5.06,2.11,6.38,6.38,0,0,1-4.91-2.13C869.32,303.8,868.67,301.68,868.67,298.88Z"/><path class="cls-2" d="M916,244.74l26.62,40.43v-40.8q0-4,1.7-6a5.77,5.77,0,0,1,4.6-2,5.92,5.92,0,0,1,4.7,2q1.73,2,1.73,6v53.94q0,9-7.46,9a9.87,9.87,0,0,1-3.36-.54,8.56,8.56,0,0,1-2.79-1.71,16.66,16.66,0,0,1-2.43-2.74c-.74-1-1.49-2.11-2.24-3.2l-26-40v40.19q0,3.93-1.82,5.94a6,6,0,0,1-4.66,2,5.93,5.93,0,0,1-4.71-2,8.78,8.78,0,0,1-1.77-5.92V246.47a14.94,14.94,0,0,1,.75-5.28,7.48,7.48,0,0,1,2.93-3.44,8,8,0,0,1,4.43-1.34,7.28,7.28,0,0,1,5.53,2.25,17.76,17.76,0,0,1,2,2.67C914.57,242.42,915.29,243.56,916,244.74Z"/><path class="cls-2" d="M1015.56,248.3H984.37v16.84h28.72a6.83,6.83,0,0,1,4.73,1.43,4.86,4.86,0,0,1,1.56,3.76,5,5,0,0,1-1.54,3.82,6.66,6.66,0,0,1-4.75,1.47H984.37v19.51h32.26a7.05,7.05,0,0,1,4.92,1.52,5.27,5.27,0,0,1,1.66,4.05,5.13,5.13,0,0,1-1.66,3.95,7,7,0,0,1-4.92,1.52H979q-4.51,0-6.5-2t-2-6.5V246.1a11.59,11.59,0,0,1,.88-4.89,5.54,5.54,0,0,1,2.78-2.76,11.54,11.54,0,0,1,4.82-.87h36.55a7.09,7.09,0,0,1,4.92,1.48,5,5,0,0,1,1.61,3.86,5.07,5.07,0,0,1-1.61,3.91A7.09,7.09,0,0,1,1015.56,248.3Z"/><path class="cls-3" d="M120,22.19v94.69a177.25,177.25,0,0,1-1,21,66.11,66.11,0,0,1-4.75,17.51,47.27,47.27,0,0,1-20.34,23.24q-14.19,8.32-34.53,8.32-18.36,0-30.63-5.79T8.88,162.38a68.2,68.2,0,0,1-6.41-15.91A64.56,64.56,0,0,1,0,129.34q0-8.64,4.81-13.2a17.17,17.17,0,0,1,12.33-4.56q7.27,0,11,4.19t5.67,13.07A121.8,121.8,0,0,0,38,144a22.68,22.68,0,0,0,7,9.74q4.94,4.06,14.06,4.07,24.28,0,24.29-35.64v-100q0-11.08,4.87-16.64T101.47,0Q110,0,115,5.55T120,22.19Z"/><path class="cls-3" d="M467.41,33.29h-40V164.6q0,11.34-5,16.83a17,17,0,0,1-13.07,5.48,17.2,17.2,0,0,1-13.26-5.54Q391,175.82,391,164.6V33.29H351q-9.37,0-13.93-4.13a14,14,0,0,1-4.56-10.91q0-7,4.74-11.1T351,3.08H467.41q9.49,0,14.12,4.19a14.14,14.14,0,0,1,4.62,11,13.84,13.84,0,0,1-4.68,10.91Q476.78,33.28,467.41,33.29Z"/><path class="cls-3" d="M544.72,22.19V74h79V22.19q0-11.08,5-16.64A16.83,16.83,0,0,1,641.87,0a17.44,17.44,0,0,1,13.38,5.49q5.12,5.48,5.12,16.7V164.6q0,11.22-5.18,16.77a17.39,17.39,0,0,1-13.32,5.54q-8.26,0-13.19-5.61t-4.93-16.7V103.81h-79V164.6q0,11.22-5.18,16.77a17.39,17.39,0,0,1-13.32,5.54q-8.26,0-13.19-5.61t-4.93-16.7V22.19q0-11.08,4.87-16.64T526.22,0A17.44,17.44,0,0,1,539.6,5.49Q544.71,11,544.72,22.19Z"/><path class="cls-3" d="M234.11,0q28.11,0,48.27,11.41a73.87,73.87,0,0,1,30.51,32.42q10.37,21,10.36,49.38a120.77,120.77,0,0,1-5.67,38.1,82.3,82.3,0,0,1-17,29.71,74.3,74.3,0,0,1-27.86,19.24q-16.53,6.65-37.85,6.65t-38-6.84a75.31,75.31,0,0,1-28-19.29,82.46,82.46,0,0,1-16.95-30A121,121,0,0,1,146.2,93a116.76,116.76,0,0,1,6-38.22A81.94,81.94,0,0,1,169.5,25.15,75.06,75.06,0,0,1,197.12,6.47Q213.4,0,234.11,0Zm52,93q0-19.84-6.41-34.39t-18.31-22a50.3,50.3,0,0,0-27.31-7.46,49.46,49.46,0,0,0-20.28,4.13,44.5,44.5,0,0,0-16,12q-6.72,7.89-10.61,20.16A91.05,91.05,0,0,0,183.31,93a93.35,93.35,0,0,0,3.88,27.87,57,57,0,0,0,11,20.65,46,46,0,0,0,16.27,12.27,51.39,51.39,0,0,0,46-3q11.77-7,18.74-21.7T286.14,93Z"/><path class="cls-3" d="M947.4,22l70.4,106.52V21q0-10.48,4.5-15.72T1034.44,0q7.89,0,12.46,5.24T1051.46,21V163.12q0,23.79-19.73,23.79a26.16,26.16,0,0,1-8.87-1.41,22.59,22.59,0,0,1-7.4-4.5,43.78,43.78,0,0,1-6.41-7.22q-3-4.12-5.92-8.44L934.45,60V166q0,10.37-4.81,15.66a15.86,15.86,0,0,1-12.33,5.3,15.7,15.7,0,0,1-12.45-5.36q-4.68-5.36-4.68-15.6V26.51q0-8.88,2-13.93a19.92,19.92,0,0,1,7.77-9.07A21.14,21.14,0,0,1,921.63,0a20.42,20.42,0,0,1,8.45,1.6,20.4,20.4,0,0,1,6.16,4.32,44.38,44.38,0,0,1,5.43,7Q944.45,17.26,947.4,22Z"/><path class="cls-1" d="M781.7,20.58a73.91,73.91,0,1,1-73.91,73.91A74,74,0,0,1,781.7,20.58M781.7,2a92.46,92.46,0,1,0,92.45,92.45A92.45,92.45,0,0,0,781.7,2Z"/><circle class="cls-1" cx="781.7" cy="94.49" r="36.92"/></g></g></svg>